<svg width="300" height="990" viewBox="0 0 300 990" fill="none" xmlns="http://www.w3.org/2000/svg">
<path d="M118.899 112.912C109.97 112.912 105.506 116.059 105.506 122.352C105.506 126.709 106.185 130.291 107.544 133.098C108.902 136.003 109.582 137.939 109.582 138.907C109.582 140.94 108.514 141.957 106.379 141.957C98.0325 141.957 90.8505 137.6 84.8332 128.887C78.5248 119.689 76.9719 110.298 80.1747 100.714C82.4069 94.4205 87.211 89.7733 94.5871 86.7721C98.3722 85.3198 101.818 84.5937 104.923 84.5937C109.97 84.5937 115.308 85.0778 120.937 86.0459C102.497 77.0421 89.783 65.8599 82.7951 52.4993C80.0776 47.1744 78.7189 41.5107 78.7189 35.5082C78.7189 29.5056 79.9321 24.2775 82.3584 19.824C84.8818 15.4673 88.3272 11.7399 92.6945 8.64181C101.818 2.34879 113.27 -0.507268 127.051 0.0736269C144.327 0.654522 161.263 5.73735 177.859 15.3221C193.387 24.1323 206.053 35.2661 215.855 48.7235C225.851 62.1809 230.85 74.7669 230.85 86.4816C230.85 98.1963 225.463 107.636 214.69 114.8C225.463 121.48 230.85 127.386 230.85 132.517C230.85 138.036 229.831 142.199 227.792 145.007C223.91 150.332 220.513 152.219 217.602 150.67C167.717 126.37 136.66 113.88 124.431 113.203C122.684 113.009 120.84 112.912 118.899 112.912ZM118.317 32.3132C106.67 32.3132 100.847 36.0406 100.847 43.4955C100.847 49.2076 105.7 56.2267 115.405 64.5529C129.672 76.7516 148.888 87.5466 173.055 96.9377C180.625 99.939 188.195 102.456 195.765 104.489C202.365 104.102 207.217 101.343 210.323 96.2116C211.391 94.4689 211.924 91.8549 211.924 88.3695C211.924 84.981 210.663 80.9631 208.139 76.316C205.616 71.7656 202.17 67.3121 197.803 62.9554C193.436 58.6955 188.243 54.6777 182.226 50.9019C176.306 47.2229 169.852 43.9795 162.864 41.1719C147.918 35.2661 133.069 32.3132 118.317 32.3132Z" fill="#ECEEEE"/>
<path d="M130.4 161.417C138.843 161.611 147.238 162.918 155.585 165.338C164.029 167.855 171.987 171.147 179.46 175.213C186.933 179.376 193.824 184.265 200.132 189.881C206.441 195.593 211.876 201.789 216.437 208.469C226.046 222.411 230.85 237.078 230.85 252.472C230.85 268.35 224.493 279.145 211.779 284.857C207.217 286.89 202.025 287.81 196.202 287.616C190.476 287.519 185.186 286.6 180.333 284.857C175.578 283.114 171.308 280.936 167.522 278.322C158.982 272.416 154.711 266.462 154.711 260.459C154.711 253.779 156.555 248.841 160.244 245.647C163.446 242.839 167.183 241.968 171.453 243.033C172.715 243.323 173.831 244.194 174.801 245.647C175.869 247.099 177.519 248.938 179.751 251.165C186.351 257.458 194.067 260.75 202.898 261.04C208.916 261.234 211.924 257.555 211.924 250.003C211.924 241.871 207.363 233.351 198.24 224.444C184.944 211.471 167.911 202.322 147.141 196.997C129.089 192.35 115.89 193.221 107.544 199.611C102.691 203.387 100.265 208.518 100.265 215.004C100.265 225.945 104.147 236.497 111.911 246.663C114.337 249.761 116.812 252.278 119.336 254.215C121.859 256.151 123.121 257.942 123.121 259.588C123.121 261.234 122.296 262.589 120.646 263.654C119.093 264.816 117.055 265.397 114.531 265.397C108.805 265.397 103.176 262.831 97.6442 257.7C85.0273 244.533 78.7189 228.704 78.7189 210.212C78.7189 194.431 83.2319 182.232 92.2578 173.616C101.187 165.096 113.901 161.03 130.4 161.417Z" fill="#ECEEEE"/>
<path d="M118.317 385.061C118.317 387.869 116.424 389.273 112.639 389.273C109.436 389.273 106.33 388.304 103.322 386.368C97.6928 383.754 92.3548 378.526 87.3081 370.684C81.582 361.777 78.7189 352.822 78.7189 343.818C78.7189 328.23 85.7067 318.355 99.6824 314.192C116.278 309.254 151.46 316.661 205.228 336.411C206.198 325.277 208.139 319.226 211.051 318.258C211.924 317.968 212.846 317.823 213.817 317.823C214.884 317.823 216.098 318.258 217.456 319.13C218.815 320.098 220.125 321.308 221.387 322.76C224.202 326.149 225.609 329.586 225.609 333.071L225.609 344.544C250.163 355 264.139 362.455 267.536 366.908C269.089 369.038 269.865 371.41 269.865 374.024C269.865 376.638 269.525 378.817 268.846 380.559C268.167 382.302 267.196 383.851 265.934 385.206C263.023 388.304 259.771 389.854 256.181 389.854C254.239 389.854 252.007 389.273 249.484 388.111L226.046 377.364L226.046 380.85C226.046 386.852 226.094 391.693 226.191 395.372C226.191 395.372 226.24 398.131 226.337 403.65C226.434 405.489 226.482 407.764 226.482 410.475C226.482 413.283 225.463 414.687 223.425 414.687C210.614 414.687 204.209 399.583 204.209 369.377L204.209 368.215L178.587 358.34C148.306 347.206 127.1 341.639 114.968 341.639C111.571 341.639 108.902 342.414 106.961 343.963C105.117 345.512 104.195 348.416 104.195 352.676C104.195 356.936 104.923 360.809 106.379 364.294C107.835 367.78 109.436 370.829 111.183 373.443C113.027 376.057 114.677 378.284 116.133 380.124C117.589 382.06 118.317 383.706 118.317 385.061Z" fill="#ECEEEE"/>
<path d="M264.915 485.846C262.683 483.716 260.839 481.296 259.383 478.585C258.025 475.874 257.151 473.018 256.763 470.017C256.472 467.016 256.957 464.16 258.219 461.449C259.48 458.835 261.276 456.56 263.605 454.623C268.458 450.46 273.359 448.379 278.309 448.379C283.258 448.379 286.946 449.153 289.373 450.702C291.896 452.348 293.934 454.381 295.487 456.802C298.496 461.449 300 465.805 300 469.872C300 474.035 299.709 477.23 299.127 479.456C298.544 481.78 297.574 483.91 296.215 485.846C293.012 490.59 289.082 492.962 284.423 492.962C279.861 492.962 276.028 492.284 272.922 490.929C269.914 489.67 267.245 487.976 264.915 485.846ZM107.398 456.075C107.398 458.593 105.748 459.851 102.448 459.851C98.081 459.851 93.568 457.867 88.9095 453.897C82.1157 448.088 78.7189 440.294 78.7189 430.516C78.7189 419.285 83.2804 411.589 92.4034 407.426C95.6061 405.877 99.4883 405.102 104.05 405.102C108.611 405.102 113.658 405.877 119.19 407.426C124.819 409.071 130.691 411.056 136.805 413.38C143.017 415.8 149.276 418.414 155.585 421.222L173.928 428.919C187.612 434.534 196.638 437.342 201.006 437.342C205.373 437.342 208.236 436.858 209.595 435.889C211.051 435.018 212.167 434.05 212.943 432.985L214.981 430.08C215.661 429.112 216.825 428.628 218.475 428.628C220.222 428.628 221.872 429.257 223.425 430.516C224.978 431.872 226.337 433.614 227.501 435.744C229.734 440.101 230.85 445.184 230.85 450.993C230.85 465.225 227.113 472.34 219.64 472.34C210.905 472.34 200.909 470.065 189.651 465.515C178.489 460.965 169.464 457.092 162.573 453.897L142.483 445.184C127.731 438.794 117.103 435.599 110.601 435.599C106.33 435.599 104.195 437.729 104.195 441.989C104.195 446.152 104.729 449.298 105.797 451.428C106.864 453.558 107.398 455.107 107.398 456.075Z" fill="#ECEEEE"/>
<path d="M94.2959 493.107C97.4987 491.655 101.284 490.929 105.651 490.929C110.019 490.929 114.823 491.607 120.064 492.962C125.401 494.318 130.836 496.06 136.368 498.19C141.9 500.32 147.53 502.692 153.256 505.306L170.143 512.713C192.368 522.297 205.47 525.831 209.449 523.314C211.293 522.152 213.137 519.925 214.981 516.634C215.661 515.569 216.825 515.036 218.475 515.036C220.222 515.036 221.872 515.714 223.425 517.069C224.978 518.522 226.337 520.409 227.501 522.733C229.734 527.38 230.85 532.076 230.85 536.82C230.85 541.564 230.316 545.146 229.248 547.566C228.278 550.083 227.016 552.165 225.463 553.811C222.26 556.909 218.378 558.458 213.817 558.458C209.255 558.458 204.111 557.587 198.385 555.844C192.659 554.101 186.642 551.923 180.333 549.309C174.025 546.695 167.571 543.839 160.971 540.741L141.9 532.173C127.828 526.073 118.511 523.023 113.949 523.023C105.02 523.023 100.556 526.17 100.556 532.463C100.556 548.631 110.164 563.783 129.381 577.918C140.542 586.147 152.673 592.053 165.776 595.635C171.987 597.281 177.616 598.104 182.663 598.104C187.807 598.104 192.077 597.91 195.474 597.523C198.871 597.233 201.879 596.7 204.5 595.926C209.158 594.667 213.186 592.537 216.583 589.536C219.106 587.503 222.066 588.422 225.463 592.295C229.054 596.555 230.85 602.606 230.85 610.448C230.85 615.289 228.569 619.549 224.007 623.228C218.572 627.875 210.76 630.198 200.569 630.198C190.476 630.198 180.528 628.698 170.725 625.696C161.02 622.695 151.654 618.581 142.628 613.352C133.699 608.124 125.353 601.928 117.589 594.764C109.824 587.696 103.079 580.048 97.3531 571.819C84.9303 554.198 78.7189 536.578 78.7189 518.957C78.7189 506.274 83.9112 497.658 94.2959 493.107Z" fill="#ECEEEE"/>
<path d="M264.915 722.851C262.683 720.721 260.839 718.301 259.383 715.59C258.024 712.879 257.151 710.023 256.763 707.022C256.472 704.02 256.957 701.164 258.219 698.453C259.48 695.839 261.276 693.564 263.605 691.628C268.458 687.465 273.359 685.383 278.309 685.383C283.258 685.383 286.946 686.158 289.373 687.707C291.896 689.353 293.934 691.386 295.487 693.806C298.496 698.453 300 702.81 300 706.876C300 711.04 299.709 714.234 299.126 716.461C298.544 718.785 297.574 720.915 296.215 722.851C293.012 727.595 289.081 729.967 284.423 729.967C279.861 729.967 276.028 729.289 272.922 727.934C269.914 726.675 267.245 724.981 264.915 722.851ZM107.398 693.08C107.398 695.597 105.748 696.856 102.448 696.856C98.081 696.856 93.568 694.871 88.9094 690.902C82.1157 685.093 78.7189 677.299 78.7189 667.521C78.7189 656.29 83.2804 648.593 92.4034 644.43C95.6061 642.881 99.4882 642.107 104.05 642.107C108.611 642.107 113.658 642.881 119.19 644.43C124.819 646.076 130.691 648.061 136.805 650.384C143.017 652.805 149.276 655.419 155.585 658.227L173.928 665.923C187.612 671.539 196.638 674.346 201.006 674.346C205.373 674.346 208.236 673.862 209.595 672.894C211.051 672.023 212.167 671.055 212.943 669.99L214.981 667.085C215.661 666.117 216.825 665.633 218.475 665.633C220.222 665.633 221.872 666.262 223.425 667.521C224.978 668.876 226.337 670.619 227.501 672.749C229.734 677.106 230.85 682.188 230.85 687.997C230.85 702.229 227.113 709.345 219.64 709.345C210.905 709.345 200.909 707.07 189.651 702.52C178.489 697.969 169.464 694.097 162.573 690.902L142.483 682.188C127.731 675.799 117.103 672.604 110.601 672.604C106.33 672.604 104.195 674.734 104.195 678.994C104.195 683.157 104.729 686.303 105.797 688.433C106.864 690.563 107.398 692.112 107.398 693.08Z" fill="#ECEEEE"/>
<path d="M118.317 814.051C118.317 816.859 116.424 818.263 112.639 818.263C109.436 818.263 106.33 817.295 103.322 815.358C97.6927 812.744 92.3548 807.516 87.3081 799.674C81.5819 790.767 78.7189 781.812 78.7189 772.808C78.7189 757.221 85.7067 747.345 99.6823 743.182C116.278 738.245 151.46 745.651 205.228 765.401C206.198 754.268 208.139 748.217 211.051 747.249C211.924 746.958 212.846 746.813 213.817 746.813C214.884 746.813 216.098 747.249 217.456 748.12C218.815 749.088 220.125 750.298 221.387 751.75C224.201 755.139 225.609 758.576 225.609 762.061L225.609 773.534C250.163 783.99 264.139 791.445 267.536 795.898C269.089 798.028 269.865 800.4 269.865 803.014C269.865 805.628 269.525 807.807 268.846 809.549C268.167 811.292 267.196 812.841 265.934 814.197C263.023 817.295 259.771 818.844 256.18 818.844C254.239 818.844 252.007 818.263 249.484 817.101L226.045 806.355L226.045 809.84C226.045 815.842 226.094 820.683 226.191 824.362C226.191 824.362 226.24 827.121 226.337 832.64C226.434 834.479 226.482 836.755 226.482 839.465C226.482 842.273 225.463 843.677 223.425 843.677C210.614 843.677 204.209 828.574 204.209 798.367L204.209 797.205L178.587 787.33C148.306 776.196 127.1 770.63 114.968 770.63C111.571 770.63 108.902 771.404 106.961 772.953C105.117 774.502 104.195 777.407 104.195 781.667C104.195 785.926 104.923 789.799 106.379 793.284C107.835 796.77 109.436 799.819 111.183 802.433C113.027 805.048 114.677 807.274 116.133 809.114C117.589 811.05 118.317 812.696 118.317 814.051Z" fill="#ECEEEE"/>
<path d="M94.2959 836.125C97.4986 834.964 101.138 834.383 105.214 834.383C109.388 834.383 113.998 835.06 119.044 836.416C124.188 837.868 129.526 839.708 135.058 841.934C140.59 844.161 146.268 846.581 152.091 849.195L169.561 857.038C191.98 867.106 205.276 870.834 209.449 868.22C211.293 867.058 213.137 864.88 214.981 861.685C215.661 860.523 216.825 859.942 218.475 859.942C220.222 859.942 221.872 860.62 223.425 861.975C224.978 863.427 226.337 865.267 227.501 867.494C229.734 872.238 230.85 876.982 230.85 881.726C230.85 886.469 230.316 890.052 229.248 892.472C228.278 894.989 227.016 897.022 225.463 898.571C222.26 901.766 218.718 903.364 214.836 903.364C210.954 903.364 206.586 902.735 201.734 901.476C196.978 900.217 191.786 898.571 186.157 896.538C180.528 894.505 174.704 892.278 168.687 889.858C152.964 883.178 142.58 878.676 137.533 876.352L126.323 870.979C119.627 867.978 114.92 866.477 112.202 866.477C109.485 866.477 107.544 866.913 106.379 867.784C105.311 868.655 104.778 870.204 104.778 872.431C104.778 874.755 105.651 877.272 107.398 879.983C109.145 882.79 111.474 885.792 114.386 888.987C117.297 892.182 120.646 895.473 124.431 898.862C128.313 902.347 132.341 905.736 136.514 909.027C147.19 917.644 156.361 924.034 164.029 928.197C202.656 949.109 222.843 960.195 224.59 961.453C228.763 964.648 230.85 967.843 230.85 971.038C230.85 974.33 230.461 977.186 229.685 979.606C229.006 982.027 227.987 984.108 226.628 985.851C223.813 989.723 220.659 990.885 217.165 989.336C213.671 987.884 208.867 986.093 202.753 983.963C149.276 965.568 115.939 953.611 102.74 948.093C89.5403 942.671 78.9615 937.927 71.0031 933.861C62.9477 929.794 54.8438 925.002 46.6913 919.484C38.5389 914.062 31.1143 908.253 24.4176 902.057C9.27736 887.922 1.17343 874.658 0.105842 862.266C-0.28237 857.522 0.397002 853.746 2.14396 850.938C5.05555 846.097 7.82157 843.677 10.442 843.677C13.0624 843.677 14.9064 845.855 15.974 850.212C16.9446 854.666 18.9827 859.216 22.0884 863.863C25.097 868.607 28.6395 873.157 32.7157 877.514C44.9444 890.294 58.2407 900.217 72.6045 907.285C85.2214 913.287 97.159 918.128 108.417 921.807L143.065 933.135C139.668 930.327 135.689 927.229 131.128 923.84L117.152 913.384C105.603 904.284 97.4016 896.732 92.5489 890.729C83.3289 879.305 78.7189 869.091 78.7189 860.087C78.7189 848.082 83.9112 840.095 94.2959 836.125Z" fill="#ECEEEE"/>
</svg>
