<svg width="315" height="520" viewBox="0 0 315 520" fill="none" xmlns="http://www.w3.org/2000/svg">
<g style="mix-blend-mode:overlay" opacity="0.4">
<path d="M96.13 371.808C92.8037 376.682 89.5882 380.558 86.4837 383.438C83.3792 386.317 79.6095 387.757 75.1744 387.757C70.9611 387.757 66.9693 384.545 63.1995 378.121C59.6515 371.476 57.8776 361.619 57.8776 348.549C57.8776 335.259 60.7604 322.079 66.526 309.01C72.2916 295.94 79.831 283.757 89.1447 272.46C98.4583 260.941 109.102 249.977 121.077 239.566L194.255 180.754C236.389 147.306 257.455 115.74 257.455 86.0575C257.455 70.9947 253.353 59.3653 245.148 51.1693C236.943 42.9734 227.075 38.8754 215.544 38.8754C204.013 38.8754 194.366 40.9798 186.605 45.1885C178.844 49.1757 172.413 54.2705 167.313 60.4728C157.334 72.656 152.344 85.6145 152.344 99.3482C152.344 108.652 153.896 116.737 157.001 123.604C160.327 130.249 161.991 134.79 161.991 137.227C161.991 139.442 160.882 142.543 158.664 146.53C156.447 150.518 153.231 154.283 149.018 157.827C139.039 165.802 129.171 169.789 119.414 169.789C109.879 169.789 102.782 168.239 98.1257 165.137C93.6906 161.815 89.9209 157.606 86.8164 152.511C81.2725 143.208 78.5006 131.8 78.5006 118.288C78.5006 104.775 81.4943 90.9308 87.4817 76.754C93.469 62.5772 102.117 49.7295 113.427 38.2109C138.707 12.737 171.415 0 211.552 0C241.932 0 266.88 9.41427 286.394 28.2428C305.465 47.0714 315 70.8839 315 99.6805C315 149.964 292.159 192.605 246.478 227.604L204.9 258.837C167.202 286.526 139.039 312 120.412 335.259C115.311 342.126 110.766 348.771 106.774 355.195C103.004 361.397 99.4563 366.935 96.13 371.808ZM14.9683 430.288C24.9472 422.092 34.7044 417.994 44.2398 417.994C53.9969 417.994 62.2017 418.658 68.8543 419.987C75.7287 421.316 82.1596 423.421 88.1469 426.3C101.896 433.389 108.77 443.578 108.77 456.869C108.77 473.482 103.337 487.991 92.4709 500.396C80.9397 513.465 67.9674 520 53.5535 520H51.2249C37.0327 520 24.7254 514.684 14.303 504.051C4.76765 493.862 0 483.007 0 471.489C0 452.217 4.98944 438.483 14.9683 430.288Z" fill="white"/>
</g>
</svg>
