<svg width="814" height="167" viewBox="0 0 814 167" fill="none" xmlns="http://www.w3.org/2000/svg">
<path d="M48.6076 8.76337C61.6137 8.65314 71.6989 11.0231 78.8633 15.8733C86.1379 20.7234 89.2792 28.164 88.2872 38.195C87.9566 41.502 86.7993 44.7538 84.8153 47.9505C82.9415 51.1472 80.1309 54.0132 76.3833 56.5485C72.746 59.0838 68.1719 61.0129 62.6608 62.3356V62.501C73.9034 63.7135 82.0597 67.1307 87.1299 72.7525C92.2001 78.264 94.5699 84.7125 94.2392 92.098C93.9085 99.1528 91.8694 105.105 88.1219 109.955C84.4846 114.806 79.6349 118.498 73.5727 121.034C67.6208 123.569 60.787 124.837 53.0715 124.837H0L0.495996 115.743C3.47197 115.632 5.84173 115.081 7.60527 114.089C9.36881 113.097 10.6364 111.444 11.4079 109.129C12.1795 106.704 12.6754 103.342 12.8959 99.0426L16.3679 33.7307C16.5883 30.7545 16.8087 27.9987 17.0292 25.4634C17.2496 22.9281 17.4701 20.9439 17.6905 19.5109C15.927 19.6211 13.7777 19.7314 11.2426 19.8416C8.8177 19.8416 6.88883 19.8967 5.45595 20.0069L6.11728 9.09406C13.1714 8.98383 20.1705 8.92872 27.1144 8.92872C34.1686 8.92872 41.333 8.8736 48.6076 8.76337ZM49.2689 70.1069C46.4032 70.1069 43.813 70.1069 41.4983 70.1069C39.2939 70.1069 37.0344 70.2172 34.7197 70.4376L33.2317 100.696C33.1215 103.672 32.9011 106.428 32.5704 108.963C32.2397 111.388 31.9642 113.317 31.7437 114.751C33.7277 114.751 35.7117 114.806 37.6957 114.916C39.6797 114.916 41.6085 114.916 43.4823 114.916C45.3561 114.806 47.0094 114.751 48.4423 114.751C55.7169 114.53 61.3381 112.436 65.3061 108.467C69.3843 104.389 71.5887 98.9323 71.9194 92.098C72.25 86.5865 71.3683 82.2324 69.2741 79.0357C67.1799 75.7287 64.3692 73.4139 60.8421 72.0911C57.3151 70.7683 53.4573 70.1069 49.2689 70.1069ZM48.1116 18.5188C45.6867 18.5188 43.6476 18.8495 41.9943 19.5109C40.4512 20.1723 39.2388 21.5502 38.357 23.6446C37.4752 25.7389 36.9241 28.8805 36.7037 33.0693L35.2157 60.3515C36.869 60.3515 38.5223 60.3515 40.1757 60.3515C41.829 60.2413 43.4272 60.1861 44.9703 60.1861C50.2609 59.9657 54.4493 58.8083 57.5355 56.7139C60.7319 54.6195 63.0466 51.8637 64.4794 48.4465C66.0225 44.9191 66.8492 41.1162 66.9594 37.0376C67.1799 32.1875 66.3532 28.4396 64.4794 25.7941C62.6057 23.0383 60.1808 21.1092 57.2048 20.0069C54.2289 18.9046 51.1978 18.4086 48.1116 18.5188Z" fill="#F6FBFB"/>
<path d="M147.225 40.3446C151.745 40.3446 155.823 41.0611 159.46 42.4941C163.208 43.8168 166.128 45.9663 168.223 48.9426C170.317 51.9188 171.364 55.7769 171.364 60.5168C171.364 65.0363 169.931 68.8944 167.065 72.0911C164.31 75.2878 160.617 77.9333 155.988 80.0277C151.469 82.0119 146.564 83.6654 141.274 84.9881C135.983 86.3109 130.858 87.2479 125.898 87.799C125.898 94.3026 126.614 99.4835 128.047 103.342C129.48 107.089 131.409 109.79 133.834 111.444C136.369 112.987 139.124 113.758 142.1 113.758C144.415 113.758 146.95 113.317 149.705 112.436C152.571 111.444 155.382 109.68 158.137 107.145C160.893 104.609 163.318 101.082 165.412 96.5624L173.348 100.531C170.262 107.255 166.845 112.546 163.097 116.404C159.35 120.152 155.382 122.797 151.193 124.341C147.005 125.884 142.651 126.655 138.132 126.655C127.882 126.766 119.946 123.734 114.324 117.561C108.703 111.388 105.893 102.46 105.893 90.7753C105.893 85.0432 106.719 79.2561 108.372 73.4139C110.026 67.4614 112.506 62.005 115.812 57.0446C119.229 52.0842 123.528 48.0607 128.708 44.9743C133.889 41.8878 140.061 40.3446 147.225 40.3446ZM145.242 49.4386C141.053 49.4386 137.636 50.9267 134.991 53.903C132.346 56.769 130.307 60.4617 128.874 64.9812C127.551 69.3904 126.669 73.965 126.228 78.705C132.18 77.7129 137.195 76.2799 141.274 74.4059C145.352 72.4218 148.493 70.1069 150.697 67.4614C152.902 64.8158 154.004 61.8947 154.004 58.698C153.894 55.7218 153.012 53.4621 151.359 51.9188C149.705 50.2654 147.666 49.4386 145.242 49.4386Z" fill="#F6FBFB"/>
<path d="M211.321 126.655C206.251 126.655 201.567 125.939 197.268 124.506C192.969 122.963 189.442 120.813 186.687 118.057C184.042 115.191 182.719 111.829 182.719 107.971C182.719 104.885 183.601 102.405 185.364 100.531C187.238 98.5465 189.497 97.5545 192.143 97.5545C194.898 97.5545 197.048 98.4914 198.591 100.365C200.244 102.129 201.071 104.223 201.071 106.649C201.071 107.42 200.961 108.247 200.74 109.129C200.63 110.011 200.354 110.892 199.913 111.774C200.575 113.317 202.118 114.64 204.543 115.743C207.078 116.845 209.392 117.396 211.487 117.396C216.667 117.396 220.415 116.239 222.729 113.924C225.044 111.609 226.201 108.743 226.201 105.326C226.201 102.901 225.319 100.806 223.556 99.0426C221.792 97.1687 219.533 95.405 216.777 93.7515C214.022 91.9878 211.101 90.2241 208.015 88.4604C203.496 85.8149 199.583 83.2795 196.276 80.8545C193.08 78.4294 190.655 75.8941 189.001 73.2485C187.348 70.4928 186.522 67.296 186.522 63.6584C186.522 59.6901 187.734 55.9422 190.159 52.4149C192.584 48.8875 196.056 46.0215 200.575 43.8168C205.094 41.502 210.55 40.3446 216.943 40.3446C221.241 40.3446 225.43 41.0611 229.508 42.4941C233.586 43.8168 236.948 45.801 239.593 48.4465C242.238 51.0921 243.561 54.2337 243.561 57.8713C243.561 60.5168 242.734 62.8317 241.081 64.8158C239.428 66.6898 237.168 67.6267 234.302 67.6267C231.657 67.6267 229.508 66.7449 227.855 64.9812C226.311 63.2175 225.54 61.1231 225.54 58.698C225.54 57.8162 225.595 56.9894 225.705 56.2178C225.926 55.4462 226.256 54.6746 226.697 53.903C225.926 52.47 224.548 51.3677 222.564 50.596C220.69 49.8244 218.596 49.4386 216.281 49.4386C214.518 49.4386 212.644 49.8795 210.66 50.7614C208.786 51.533 207.188 52.6904 205.865 54.2337C204.543 55.6667 203.881 57.4304 203.881 59.5248C203.881 61.2885 204.322 62.8317 205.204 64.1545C206.086 65.4772 207.629 66.9102 209.833 68.4535C212.038 69.9967 215.014 71.8706 218.761 74.0753C222.509 76.2799 226.311 78.6498 230.169 81.1852C234.137 83.6102 237.444 86.4762 240.089 89.7832C242.734 92.9799 244.057 96.9482 244.057 101.688C244.057 106.538 242.624 110.837 239.758 114.585C237.003 118.333 233.145 121.309 228.185 123.514C223.225 125.608 217.604 126.655 211.321 126.655Z" fill="#F6FBFB"/>
<path d="M291.413 17.6921L288.272 42.1634H310.757L309.93 51.9188L287.28 52.2495C286.839 56.4383 286.343 60.9026 285.792 65.6426C285.241 70.2723 284.745 74.8469 284.304 79.3663C283.973 83.8858 283.642 88.0746 283.312 91.9327C282.981 95.6805 282.816 98.767 282.816 101.192C282.816 102.846 282.981 104.609 283.312 106.483C283.642 108.357 284.359 109.955 285.461 111.278C286.563 112.601 288.327 113.262 290.752 113.262C291.744 113.262 293.066 113.042 294.72 112.601C296.373 112.05 298.192 111.058 300.176 109.625C302.16 108.082 304.033 105.712 305.797 102.515L312.906 106.979C309.379 113.483 305.191 118.388 300.341 121.695C295.491 125.002 290.145 126.655 284.304 126.655C278.793 126.655 274.604 125.498 271.738 123.183C268.873 120.868 266.944 117.837 265.952 114.089C264.96 110.341 264.464 106.428 264.464 102.35C264.684 98.3812 264.96 93.6964 265.291 88.2951C265.621 82.8937 266.062 77.1066 266.613 70.9337C267.164 64.6505 267.771 58.4776 268.432 52.4149L254.709 52.5802L255.867 42.1634C263.913 42.1634 269.81 40.069 273.557 35.8802C277.415 31.5812 280.226 25.5185 281.989 17.6921H291.413Z" fill="#F6FBFB"/>
<path d="M364.07 167V158.237C366.936 158.237 369.03 157.465 370.353 155.922C371.675 154.379 372.612 152.229 373.163 149.473C373.714 146.828 374.1 143.851 374.32 140.545C375.423 128.75 376.36 118.278 377.131 109.129C377.903 99.8693 378.509 91.8776 378.95 85.1535C379.501 78.4294 379.887 72.9729 380.107 68.7842C380.438 64.4852 380.603 61.3987 380.603 59.5248C380.603 57.4304 380.328 55.8871 379.776 54.8951C379.336 53.903 378.564 53.4069 377.462 53.4069C376.029 53.4069 374.486 54.4541 372.832 56.5485C371.179 58.5327 369.636 62.1703 368.203 67.4614L360.598 65.3119C361.039 63.1073 361.755 60.572 362.747 57.7059C363.739 54.8399 365.117 52.0842 366.881 49.4386C368.644 46.7931 370.793 44.6436 373.328 42.9901C375.974 41.2264 379.06 40.3446 382.587 40.3446C386.555 40.3446 389.751 41.6122 392.176 44.1475C394.601 46.6828 395.814 50.7063 395.814 56.2178C395.814 58.6429 395.648 60.9026 395.318 62.997C395.097 64.9812 394.822 67.0205 394.491 69.1149H394.822C397.577 61.2885 400.553 55.336 403.75 51.2574C407.056 47.0687 410.418 44.2026 413.835 42.6594C417.252 41.1162 420.448 40.3446 423.424 40.3446C428.715 40.3446 433.124 41.7224 436.651 44.4782C440.178 47.234 442.823 50.9819 444.587 55.7218C446.35 60.4617 447.232 65.9182 447.232 72.0911C447.232 82.6733 445.468 92.098 441.941 100.365C438.524 108.522 433.289 114.971 426.235 119.711C419.291 124.341 410.528 126.655 399.947 126.655C399.065 126.655 398.073 126.6 396.971 126.49C395.869 126.49 394.822 126.435 393.83 126.325C393.499 132.718 393.168 137.844 392.838 141.702C392.617 145.67 392.397 148.757 392.176 150.961C392.066 153.276 391.846 155.26 391.515 156.914C393.279 156.693 395.152 156.528 397.136 156.418C399.23 156.418 400.939 156.418 402.262 156.418V167H364.07ZM402.096 117.561C406.174 117.561 409.646 116.514 412.512 114.42C415.488 112.325 417.913 109.625 419.787 106.318C421.771 103.011 423.314 99.3733 424.416 95.405C425.518 91.4366 426.29 87.5234 426.731 83.6654C427.282 79.8073 427.557 76.335 427.557 73.2485C427.557 68.8393 427.227 65.1465 426.565 62.1703C425.904 59.0838 424.857 56.769 423.424 55.2257C422.101 53.6825 420.393 52.9109 418.299 52.9109C415.764 52.9109 413.339 54.0683 411.024 56.3832C408.82 58.5878 406.726 61.7845 404.742 65.9733C402.868 70.0518 401.214 74.902 399.782 80.5238C398.349 86.1456 397.136 92.3736 396.144 99.2079C395.814 101.853 395.483 104.609 395.152 107.475C394.822 110.231 394.546 113.152 394.326 116.239C395.759 116.569 397.136 116.9 398.459 117.231C399.892 117.451 401.104 117.561 402.096 117.561Z" fill="#F6FBFB"/>
<path d="M492.073 0C491.742 3.1967 491.357 6.44852 490.916 9.75545C490.475 13.0624 490.034 16.2591 489.593 19.3456C489.262 22.432 488.932 25.3531 488.601 28.1089C487.609 36.7069 486.672 44.6436 485.79 51.9188C485.019 59.0838 484.302 65.6426 483.641 71.5951C483.09 77.4373 482.594 82.6733 482.153 87.303C481.712 91.8224 481.382 95.7908 481.161 99.2079C480.941 102.515 480.83 105.326 480.83 107.641C480.83 109.625 481.051 111.113 481.492 112.105C482.043 113.097 482.814 113.593 483.806 113.593C485.349 113.593 486.948 112.601 488.601 110.617C490.254 108.522 491.797 104.83 493.23 99.5386L500.836 101.688C500.284 104.223 499.403 106.924 498.19 109.79C496.978 112.656 495.38 115.412 493.396 118.057C491.522 120.593 489.207 122.687 486.452 124.341C483.696 125.884 480.445 126.655 476.697 126.655C472.509 126.655 469.092 125.498 466.447 123.183C463.801 120.758 462.423 116.9 462.313 111.609C462.313 108.082 462.479 103.838 462.809 98.8772C463.14 93.9168 463.526 88.5155 463.967 82.6733C464.518 76.831 465.124 70.8234 465.785 64.6505C466.447 58.3673 467.108 52.1393 467.769 45.9663C468.541 39.6832 469.257 33.7307 469.919 28.1089C470.249 25.5736 470.58 23.2587 470.91 21.1644C471.241 18.9597 471.572 16.8654 471.902 14.8812C470.029 14.9914 467.99 15.1017 465.785 15.2119C463.581 15.2119 461.762 15.267 460.329 15.3772L460.991 4.79506C465.951 4.79506 470.029 4.57459 473.225 4.13367C476.422 3.58251 478.902 2.92113 480.665 2.14951C482.539 1.37789 483.862 0.661391 484.633 0H492.073Z" fill="#F6FBFB"/>
<path d="M556.701 40.3446C559.787 40.3446 563.369 40.6201 567.448 41.1713C571.526 41.7224 575.659 42.5492 579.847 43.6515C579.186 48.5017 578.415 54.0132 577.533 60.1861C576.761 66.3591 575.935 72.532 575.053 78.705C574.281 84.7677 573.62 90.3343 573.069 95.405C572.628 100.476 572.408 104.389 572.408 107.145C572.408 109.239 572.628 110.837 573.069 111.94C573.51 113.042 574.336 113.593 575.549 113.593C576.982 113.593 578.525 112.601 580.178 110.617C581.942 108.522 583.595 104.83 585.138 99.5386L592.578 101.688C592.247 103.893 591.531 106.428 590.429 109.294C589.326 112.16 587.839 114.916 585.965 117.561C584.201 120.207 581.997 122.412 579.351 124.175C576.706 125.829 573.62 126.655 570.093 126.655C566.345 126.655 563.259 125.498 560.834 123.183C558.409 120.868 557.197 117.01 557.197 111.609C557.197 109.625 557.307 107.42 557.528 104.995C557.858 102.57 558.244 100.2 558.685 97.8852H558.354C556.15 103.727 553.835 108.578 551.41 112.436C548.985 116.184 546.505 119.105 543.97 121.199C541.435 123.293 538.9 124.726 536.365 125.498C533.83 126.27 531.35 126.655 528.925 126.655C522.863 126.655 517.738 124.285 513.549 119.546C509.361 114.806 507.267 107.31 507.267 97.0584C507.267 89.3422 508.314 82.1221 510.408 75.398C512.612 68.5637 515.809 62.501 519.997 57.2099C524.186 51.9188 529.311 47.7852 535.373 44.8089C541.546 41.8327 548.655 40.3446 556.701 40.3446ZM550.914 49.604C547.167 49.604 543.805 50.7614 540.829 53.0762C537.853 55.2809 535.318 58.4776 533.224 62.6663C531.13 66.7449 529.531 71.6502 528.429 77.3822C527.437 83.1142 526.941 89.5076 526.941 96.5624C526.941 101.964 527.547 106.318 528.76 109.625C530.083 112.821 532.067 114.42 534.712 114.42C537.357 114.42 539.892 113.097 542.317 110.451C544.742 107.806 546.946 104.223 548.93 99.704C550.914 95.1845 552.678 90.169 554.221 84.6574C555.764 79.0357 557.032 73.3587 558.024 67.6267C559.016 61.7845 559.567 56.2178 559.677 50.9267C558.795 50.596 557.528 50.3205 555.874 50.1C554.221 49.7693 552.568 49.604 550.914 49.604Z" fill="#F6FBFB"/>
<path d="M638.677 40.3446C643.637 40.3446 648.046 41.1713 651.904 42.8248C655.872 44.4782 659.013 46.7931 661.328 49.7693C663.642 52.6353 664.8 56.0525 664.8 60.0208C664.8 62.997 663.918 65.4772 662.154 67.4614C660.501 69.3353 658.241 70.2723 655.376 70.2723C651.959 70.3825 649.534 69.3904 648.101 67.296C646.778 65.2017 646.117 63.3277 646.117 61.6743C646.117 60.6822 646.227 59.5799 646.448 58.3673C646.778 57.1548 647.274 55.9974 647.936 54.8951C647.495 53.2416 646.393 51.9739 644.629 51.0921C642.866 50.1 640.771 49.604 638.346 49.604C634.379 49.604 631.127 50.8165 628.592 53.2416C626.057 55.6667 624.018 58.7531 622.475 62.501C621.042 66.2488 619.995 70.2723 619.333 74.5713C618.672 78.7601 618.341 82.7284 618.341 86.4762C618.121 92.9799 618.727 98.2158 620.16 102.184C621.703 106.152 623.687 109.074 626.112 110.948C628.647 112.711 631.347 113.648 634.213 113.758C636.528 113.869 639.063 113.483 641.818 112.601C644.684 111.719 647.495 109.955 650.25 107.31C653.006 104.554 655.486 100.586 657.69 95.405L665.957 99.3733C662.981 106.318 659.564 111.774 655.706 115.743C651.959 119.711 647.936 122.522 643.637 124.175C639.449 125.718 635.095 126.545 630.576 126.655C620.876 126.545 613.051 123.569 607.099 117.727C601.257 111.884 598.336 102.846 598.336 90.6099C598.336 85.2086 599.108 79.5868 600.651 73.7446C602.304 67.9023 604.784 62.501 608.091 57.5406C611.397 52.47 615.586 48.3363 620.656 45.1396C625.726 41.9429 631.733 40.3446 638.677 40.3446Z" fill="#F6FBFB"/>
<path d="M717.169 40.3446C721.688 40.3446 725.766 41.0611 729.403 42.4941C733.151 43.8168 736.071 45.9663 738.166 48.9426C740.26 51.9188 741.307 55.7769 741.307 60.5168C741.307 65.0363 739.874 68.8944 737.008 72.0911C734.253 75.2878 730.56 77.9333 725.931 80.0277C721.412 82.0119 716.507 83.6654 711.217 84.9881C705.926 86.3109 700.801 87.2479 695.841 87.799C695.841 94.3026 696.557 99.4835 697.99 103.342C699.423 107.089 701.352 109.79 703.777 111.444C706.312 112.987 709.067 113.758 712.043 113.758C714.358 113.758 716.893 113.317 719.648 112.436C722.514 111.444 725.325 109.68 728.08 107.145C730.836 104.609 733.261 101.082 735.355 96.5624L743.291 100.531C740.205 107.255 736.788 112.546 733.04 116.404C729.293 120.152 725.325 122.797 721.136 124.341C716.948 125.884 712.594 126.655 708.075 126.655C697.825 126.766 689.889 123.734 684.267 117.561C678.646 111.388 675.836 102.46 675.836 90.7753C675.836 85.0432 676.662 79.2561 678.316 73.4139C679.969 67.4614 682.449 62.005 685.755 57.0446C689.172 52.0842 693.471 48.0607 698.651 44.9743C703.832 41.8878 710.004 40.3446 717.169 40.3446ZM715.185 49.4386C710.996 49.4386 707.579 50.9267 704.934 53.903C702.289 56.769 700.25 60.4617 698.817 64.9812C697.494 69.3904 696.612 73.965 696.171 78.705C702.123 77.7129 707.138 76.2799 711.217 74.4059C715.295 72.4218 718.436 70.1069 720.641 67.4614C722.845 64.8158 723.947 61.8947 723.947 58.698C723.837 55.7218 722.955 53.4621 721.302 51.9188C719.648 50.2654 717.609 49.4386 715.185 49.4386Z" fill="#F6FBFB"/>
<path d="M781.264 126.655C776.194 126.655 771.51 125.939 767.211 124.506C762.912 122.963 759.385 120.813 756.63 118.057C753.985 115.191 752.662 111.829 752.662 107.971C752.662 104.885 753.544 102.405 755.307 100.531C757.181 98.5465 759.441 97.5545 762.086 97.5545C764.841 97.5545 766.991 98.4914 768.534 100.365C770.187 102.129 771.014 104.223 771.014 106.649C771.014 107.42 770.904 108.247 770.683 109.129C770.573 110.011 770.297 110.892 769.856 111.774C770.518 113.317 772.061 114.64 774.486 115.743C777.021 116.845 779.335 117.396 781.43 117.396C786.61 117.396 790.358 116.239 792.672 113.924C794.987 111.609 796.144 108.743 796.144 105.326C796.144 102.901 795.262 100.806 793.499 99.0426C791.735 97.1687 789.476 95.405 786.72 93.7515C783.965 91.9878 781.044 90.2241 777.958 88.4604C773.439 85.8149 769.526 83.2795 766.219 80.8545C763.023 78.4294 760.598 75.8941 758.945 73.2485C757.291 70.4928 756.465 67.296 756.465 63.6584C756.465 59.6901 757.677 55.9422 760.102 52.4149C762.527 48.8875 765.999 46.0215 770.518 43.8168C775.037 41.502 780.493 40.3446 786.886 40.3446C791.184 40.3446 795.373 41.0611 799.451 42.4941C803.529 43.8168 806.891 45.801 809.536 48.4465C812.181 51.0921 813.504 54.2337 813.504 57.8713C813.504 60.5168 812.677 62.8317 811.024 64.8158C809.371 66.6898 807.111 67.6267 804.245 67.6267C801.6 67.6267 799.451 66.7449 797.797 64.9812C796.254 63.2175 795.483 61.1231 795.483 58.698C795.483 57.8162 795.538 56.9894 795.648 56.2178C795.869 55.4462 796.199 54.6746 796.64 53.903C795.869 52.47 794.491 51.3677 792.507 50.596C790.633 49.8244 788.539 49.4386 786.224 49.4386C784.461 49.4386 782.587 49.8795 780.603 50.7614C778.729 51.533 777.131 52.6904 775.808 54.2337C774.486 55.6667 773.824 57.4304 773.824 59.5248C773.824 61.2885 774.265 62.8317 775.147 64.1545C776.029 65.4772 777.572 66.9102 779.776 68.4535C781.981 69.9967 784.957 71.8706 788.704 74.0753C792.452 76.2799 796.254 78.6498 800.112 81.1852C804.08 83.6102 807.387 86.4762 810.032 89.7832C812.677 92.9799 814 96.9482 814 101.688C814 106.538 812.567 110.837 809.701 114.585C806.946 118.333 803.088 121.309 798.128 123.514C793.168 125.608 787.547 126.655 781.264 126.655Z" fill="#F6FBFB"/>
</svg>
