<svg width="73" height="73" viewBox="0 0 73 73" fill="none" xmlns="http://www.w3.org/2000/svg">
<g clip-path="url(#clip0_1238_22117)">
<path d="M45.4756 14.9772C40.5603 10.0657 32.5696 10.0693 27.6544 14.9772C26.9511 15.6805 26.9511 16.8193 27.6544 17.5224C28.3575 18.2257 29.4964 18.2257 30.1996 17.5224C33.7048 14.0137 39.4179 14.01 42.9292 17.5224C43.2807 17.874 43.7416 18.0492 44.2024 18.0492C44.6632 18.0492 45.124 17.874 45.4756 17.5224C46.1789 16.8191 46.1789 15.6804 45.4756 14.9772Z" fill="#F86040"/>
<path d="M71.9721 25.7088C68.3793 22.116 62.1249 22.116 58.5322 25.7088C57.8291 26.4119 57.8291 27.5532 58.5322 28.2539C59.2355 28.9572 60.3743 28.9572 61.0774 28.2539C63.3057 26.0219 67.1913 26.0219 69.427 28.2539C69.7785 28.6055 70.2393 28.7807 70.7002 28.7807C71.161 28.7807 71.6218 28.6055 71.9734 28.2539C72.6752 27.5508 72.6752 26.4096 71.9721 25.7088Z" fill="#F86040"/>
<path d="M66.3284 35.01C65.0457 32.8176 62.9817 31.2599 60.524 30.6204C59.5496 30.3552 58.5764 30.9468 58.3268 31.9092C58.0772 32.8728 58.6532 33.8556 59.6167 34.1052C61.1454 34.5025 62.426 35.4708 63.2239 36.8304C64.0219 38.1888 64.2438 39.78 63.843 41.3076C63.5934 42.2687 64.1694 43.2539 65.133 43.5036C65.2842 43.5443 65.439 43.5612 65.5866 43.5612C66.3882 43.5612 67.119 43.0249 67.3266 42.2149C67.9664 39.7559 67.6149 37.1964 66.3284 35.01Z" fill="#F86040"/>
<path d="M54.0836 12.5005C53.2892 11.9149 52.1637 12.0721 51.5624 12.8713C50.9684 13.6693 51.1375 14.7962 51.9319 15.39C54.5432 17.3328 55.0891 21.0384 53.1475 23.652C52.5535 24.45 52.7227 25.578 53.5207 26.1707C53.841 26.4095 54.2167 26.5259 54.5935 26.5259C55.142 26.5259 55.6867 26.2752 56.0383 25.7999C59.1633 21.594 58.2848 15.6277 54.0836 12.5005Z" fill="#F86040"/>
<path d="M50.1231 24.39C46.4847 20.616 40.4523 20.5044 36.6832 24.1427C35.9656 24.8315 35.9452 25.9703 36.634 26.6879C37.3299 27.4055 38.4687 27.4259 39.1791 26.7335C41.5311 24.4715 45.2751 24.5446 47.5287 26.8894C47.8839 27.2555 48.3543 27.439 48.826 27.439C49.276 27.439 49.726 27.2722 50.074 26.935C50.7915 26.2463 50.8119 25.1076 50.1231 24.39Z" fill="#F86040"/>
<path d="M57.09 34.5959C56.6436 33.7102 55.5504 33.3515 54.6708 33.8026C53.7816 34.2526 53.4264 35.335 53.8764 36.2231C54.5904 37.6307 54.7129 39.2303 54.2208 40.7278C53.7288 42.2266 52.6848 43.4445 51.2749 44.1562C50.3892 44.6062 50.0305 45.6886 50.4805 46.5754C50.7973 47.203 51.4297 47.563 52.0873 47.563C52.362 47.563 52.6392 47.5018 52.8996 47.3698C55.1676 46.2214 56.8512 44.2618 57.6421 41.8499C58.4328 39.4379 58.2359 36.8626 57.09 34.5959Z" fill="#F86040"/>
<path d="M33.9903 0.628958C30.6219 0.693786 27.4827 2.0653 25.1523 4.49051C22.8219 6.91445 21.5703 10.1028 21.6363 13.4712C21.6567 14.4528 22.4582 15.2352 23.435 15.2352C23.4458 15.2352 23.4602 15.2352 23.4697 15.2352C24.4645 15.2159 25.2517 14.3952 25.235 13.4005C25.1894 10.9957 26.0786 8.71571 27.7454 6.98645C29.4122 5.2548 31.6514 4.27451 34.0597 4.2288C35.0545 4.20954 35.8417 3.38885 35.8249 2.39408C35.8033 1.40042 34.8794 0.589302 33.9903 0.628958Z" fill="#F86040"/>
<path d="M27.9701 37.1279C25.7514 36.1967 24.0329 34.4579 23.1221 32.2343C22.2149 30.0108 22.2293 27.5639 23.1605 25.3451C23.5469 24.4271 23.1149 23.3723 22.1969 22.9884C21.2861 22.6032 20.2241 23.0328 19.8413 23.9496C18.5382 27.0551 18.5202 30.4799 19.7897 33.5939C21.0629 36.7091 23.4737 39.1415 26.5781 40.4458C26.8037 40.543 27.0424 40.5861 27.274 40.5861C27.9773 40.5861 28.6457 40.1709 28.9337 39.4845C29.3201 38.5668 28.8881 37.5119 27.9701 37.1279Z" fill="#F86040"/>
<path d="M19.1675 20.3244C18.8615 19.3799 17.8392 18.864 16.8959 19.176C10.2971 21.3456 6.6899 28.4796 8.85945 35.0808C9.1054 35.8381 9.81232 36.318 10.5682 36.318C10.7542 36.318 10.9438 36.2904 11.131 36.228C12.073 35.9172 12.5902 34.9008 12.2769 33.9552C10.73 29.2417 13.3077 24.1465 18.0213 22.5973C18.9635 22.2864 19.4807 21.2699 19.1675 20.3244Z" fill="#F86040"/>
<path d="M18.7527 13.5696C16.2422 11.3183 12.9866 10.1808 9.65426 10.3669C6.29319 10.5492 3.20677 12.0335 0.960291 14.5416C0.295559 15.282 0.359121 16.4183 1.09712 17.0832C1.44151 17.3905 1.87112 17.5417 2.29946 17.5417C2.7915 17.5417 3.28341 17.34 3.63862 16.9416C5.2454 15.1501 7.44983 14.0916 9.85099 13.9608C12.2233 13.8361 14.555 14.6424 16.3477 16.2481C17.0894 16.9128 18.2245 16.8505 18.8893 16.1112C19.5542 15.3707 19.4907 14.2319 18.7527 13.5696Z" fill="#F86040"/>
<path d="M59.2629 66.6225C53.8725 60.6118 46.3366 57.0201 38.3674 56.5258C39.0683 43.9511 47.3589 33.3168 54.8217 31.9464C55.7985 31.7676 56.4489 30.8304 56.2701 29.8512C56.0878 28.8708 55.1314 28.218 54.175 28.4064C47.8654 29.5632 41.0686 35.8668 37.4075 44.6903C35.7059 32.9244 31.4736 24.3612 24.0888 17.3233C23.3749 16.6417 22.2361 16.662 21.5436 17.3844C20.8584 18.1032 20.8861 19.2421 21.6072 19.9285C30.4824 28.3884 34.4004 39.4391 34.6511 56.5247C26.6747 57.0144 19.1304 60.607 13.7365 66.6227C12.7885 67.6799 12.5497 69.1967 13.1292 70.4939C13.7064 71.7912 14.9941 72.6264 16.4148 72.6264H56.5835C58.0042 72.6264 59.2919 71.7912 59.8703 70.4939C60.4498 69.1965 60.2109 67.681 59.2629 66.6225ZM16.4146 69.0261C21.3586 63.5145 28.5119 60.0261 36.4989 60.0261C44.486 60.0261 51.6392 63.5145 56.5832 69.0261H16.4146Z" fill="#F86040"/>
</g>
<defs>
<clipPath id="clip0_1238_22117">
<rect width="72" height="72" fill="white" transform="translate(0.5 0.626831)"/>
</clipPath>
</defs>
</svg>
