<svg width="1482" height="439" viewBox="0 0 1482 439" fill="none" xmlns="http://www.w3.org/2000/svg">
<path d="M13.5 172.191C25.5 -42.1014 444.574 -62.786 448 153.21C452.5 436.935 748.239 401.841 883 262.604C1204.5 -69.5748 1251.5 391.479 1481 438.433" stroke="#F86040" stroke-dasharray="10 10"/>
<ellipse cx="880.999" cy="261.902" rx="4.8" ry="4.79536" fill="#F86040"/>
<ellipse opacity="0.6" cx="881.001" cy="261.902" rx="8.4" ry="8.39188" stroke="#F86040"/>
<path opacity="0.2" d="M881 274.391C887.903 274.391 893.5 268.8 893.5 261.902C893.5 255.005 887.903 249.414 881 249.414C874.097 249.414 868.5 255.005 868.5 261.902C868.5 268.8 874.097 274.391 881 274.391Z" stroke="#F86040"/>
<ellipse cx="446.999" cy="154.007" rx="4.8" ry="4.79536" fill="#F86040"/>
<ellipse opacity="0.6" cx="447.001" cy="154.007" rx="8.4" ry="8.39188" stroke="#F86040"/>
<path opacity="0.2" d="M447 166.495C453.903 166.495 459.5 160.904 459.5 154.007C459.5 147.109 453.903 141.518 447 141.518C440.097 141.518 434.5 147.109 434.5 154.007C434.5 160.904 440.097 166.495 447 166.495Z" stroke="#F86040"/>
<ellipse cx="12.9992" cy="172.989" rx="4.8" ry="4.79536" fill="#F86040"/>
<ellipse opacity="0.6" cx="13.0006" cy="172.989" rx="8.4" ry="8.39188" stroke="#F86040"/>
<path opacity="0.2" d="M13 185.477C19.9031 185.477 25.5 179.886 25.5 172.989C25.5 166.091 19.9031 160.5 13 160.5C6.0969 160.5 0.5 166.091 0.5 172.989C0.5 179.886 6.0969 185.477 13 185.477Z" stroke="#F86040"/>
</svg>
