<svg width="1014" height="432" viewBox="0 0 1014 432" fill="none" xmlns="http://www.w3.org/2000/svg">
<path d="M1001 283.62C848.5 518.421 560.669 443.796 567 262.946C575.5 20.1495 434 13.1633 0 13.1636" stroke="#F86040" stroke-dasharray="10 10"/>
<ellipse cx="1001" cy="284.726" rx="4.8" ry="4.79536" fill="#F86040"/>
<ellipse opacity="0.6" cx="1001" cy="284.726" rx="8.4" ry="8.39188" stroke="#F86040"/>
<path opacity="0.2" d="M1001 297.214C1007.9 297.214 1013.5 291.623 1013.5 284.725C1013.5 277.828 1007.9 272.237 1001 272.237C994.097 272.237 988.5 277.828 988.5 284.725C988.5 291.623 994.097 297.214 1001 297.214Z" stroke="#F86040"/>
<ellipse cx="566.999" cy="266.743" rx="4.8" ry="4.79536" fill="#F86040"/>
<ellipse opacity="0.6" cx="567.001" cy="266.743" rx="8.4" ry="8.39188" stroke="#F86040"/>
<path opacity="0.2" d="M567 279.231C573.903 279.231 579.5 273.641 579.5 266.743C579.5 259.845 573.903 254.255 567 254.255C560.097 254.255 554.5 259.845 554.5 266.743C554.5 273.641 560.097 279.231 567 279.231Z" stroke="#F86040"/>
<ellipse cx="132.999" cy="12.9884" rx="4.8" ry="4.79536" fill="#F86040"/>
<ellipse opacity="0.6" cx="133.001" cy="12.9884" rx="8.4" ry="8.39188" stroke="#F86040"/>
<path opacity="0.2" d="M133 25.4768C139.903 25.4768 145.5 19.886 145.5 12.9884C145.5 6.09079 139.903 0.5 133 0.5C126.097 0.5 120.5 6.09079 120.5 12.9884C120.5 19.886 126.097 25.4768 133 25.4768Z" stroke="#F86040"/>
</svg>
